<mxfile host="app.diagrams.net" agent="Mozilla/5.0 (Windows NT 10.0; Win64; x64) AppleWebKit/537.36 (KHTML, like Gecko) Chrome/133.0.0.0 Safari/537.36" version="26.0.16">
  <diagram name="PÃ¡gina-1" id="4F_lx1jfYOmVmcAQBkn2">
    <mxGraphModel dx="1434" dy="746" grid="1" gridSize="10" guides="1" tooltips="1" connect="1" arrows="1" fold="1" page="1" pageScale="1" pageWidth="827" pageHeight="1169" math="0" shadow="0">
      <root>
        <mxCell id="0" />
        <mxCell id="1" parent="0" />
        <mxCell id="1tP4wf2vDBA2qiism38b-1" value="Cocinar un huevo" style="strokeWidth=2;html=1;shape=mxgraph.flowchart.start_1;whiteSpace=wrap;" vertex="1" parent="1">
          <mxGeometry x="250" y="70" width="100" height="60" as="geometry" />
        </mxCell>
        <mxCell id="1tP4wf2vDBA2qiism38b-6" style="edgeStyle=orthogonalEdgeStyle;rounded=0;orthogonalLoop=1;jettySize=auto;html=1;exitX=1;exitY=0.5;exitDx=0;exitDy=0;exitPerimeter=0;" edge="1" parent="1" source="1tP4wf2vDBA2qiism38b-2" target="1tP4wf2vDBA2qiism38b-4">
          <mxGeometry relative="1" as="geometry" />
        </mxCell>
        <mxCell id="1tP4wf2vDBA2qiism38b-7" style="edgeStyle=orthogonalEdgeStyle;rounded=0;orthogonalLoop=1;jettySize=auto;html=1;exitX=0.5;exitY=1;exitDx=0;exitDy=0;exitPerimeter=0;entryX=0.5;entryY=0;entryDx=0;entryDy=0;" edge="1" parent="1" source="1tP4wf2vDBA2qiism38b-2" target="1tP4wf2vDBA2qiism38b-5">
          <mxGeometry relative="1" as="geometry" />
        </mxCell>
        <mxCell id="1tP4wf2vDBA2qiism38b-2" value="Frito?" style="strokeWidth=2;html=1;shape=mxgraph.flowchart.decision;whiteSpace=wrap;" vertex="1" parent="1">
          <mxGeometry x="250" y="180" width="100" height="100" as="geometry" />
        </mxCell>
        <mxCell id="1tP4wf2vDBA2qiism38b-3" style="edgeStyle=orthogonalEdgeStyle;rounded=0;orthogonalLoop=1;jettySize=auto;html=1;exitX=0.5;exitY=1;exitDx=0;exitDy=0;exitPerimeter=0;entryX=0.5;entryY=0;entryDx=0;entryDy=0;entryPerimeter=0;" edge="1" parent="1" source="1tP4wf2vDBA2qiism38b-1" target="1tP4wf2vDBA2qiism38b-2">
          <mxGeometry relative="1" as="geometry" />
        </mxCell>
        <mxCell id="1tP4wf2vDBA2qiism38b-11" style="edgeStyle=orthogonalEdgeStyle;rounded=0;orthogonalLoop=1;jettySize=auto;html=1;exitX=0.5;exitY=1;exitDx=0;exitDy=0;" edge="1" parent="1" source="1tP4wf2vDBA2qiism38b-4" target="1tP4wf2vDBA2qiism38b-10">
          <mxGeometry relative="1" as="geometry" />
        </mxCell>
        <mxCell id="1tP4wf2vDBA2qiism38b-4" value="Hervido" style="rounded=1;whiteSpace=wrap;html=1;absoluteArcSize=1;arcSize=14;strokeWidth=2;" vertex="1" parent="1">
          <mxGeometry x="420" y="200" width="100" height="60" as="geometry" />
        </mxCell>
        <mxCell id="1tP4wf2vDBA2qiism38b-5" value="Freir" style="rounded=1;whiteSpace=wrap;html=1;absoluteArcSize=1;arcSize=14;strokeWidth=2;" vertex="1" parent="1">
          <mxGeometry x="250" y="340" width="100" height="60" as="geometry" />
        </mxCell>
        <mxCell id="1tP4wf2vDBA2qiism38b-8" value="SI" style="text;html=1;align=center;verticalAlign=middle;resizable=0;points=[];autosize=1;strokeColor=none;fillColor=none;" vertex="1" parent="1">
          <mxGeometry x="300" y="270" width="30" height="30" as="geometry" />
        </mxCell>
        <mxCell id="1tP4wf2vDBA2qiism38b-9" value="No" style="text;html=1;align=center;verticalAlign=middle;resizable=0;points=[];autosize=1;strokeColor=none;fillColor=none;" vertex="1" parent="1">
          <mxGeometry x="340" y="200" width="40" height="30" as="geometry" />
        </mxCell>
        <mxCell id="1tP4wf2vDBA2qiism38b-16" style="edgeStyle=orthogonalEdgeStyle;rounded=0;orthogonalLoop=1;jettySize=auto;html=1;exitX=1;exitY=0.5;exitDx=0;exitDy=0;exitPerimeter=0;entryX=1;entryY=0.5;entryDx=0;entryDy=0;" edge="1" parent="1" source="1tP4wf2vDBA2qiism38b-10" target="1tP4wf2vDBA2qiism38b-15">
          <mxGeometry relative="1" as="geometry">
            <mxPoint x="580" y="400" as="sourcePoint" />
            <mxPoint x="540" y="510" as="targetPoint" />
          </mxGeometry>
        </mxCell>
        <mxCell id="1tP4wf2vDBA2qiism38b-18" style="edgeStyle=orthogonalEdgeStyle;rounded=0;orthogonalLoop=1;jettySize=auto;html=1;exitX=0.5;exitY=1;exitDx=0;exitDy=0;exitPerimeter=0;" edge="1" parent="1" source="1tP4wf2vDBA2qiism38b-10" target="1tP4wf2vDBA2qiism38b-17">
          <mxGeometry relative="1" as="geometry" />
        </mxCell>
        <mxCell id="1tP4wf2vDBA2qiism38b-10" value="quieres sal?" style="strokeWidth=2;html=1;shape=mxgraph.flowchart.decision;whiteSpace=wrap;" vertex="1" parent="1">
          <mxGeometry x="420" y="320" width="100" height="100" as="geometry" />
        </mxCell>
        <mxCell id="1tP4wf2vDBA2qiism38b-12" style="edgeStyle=orthogonalEdgeStyle;rounded=0;orthogonalLoop=1;jettySize=auto;html=1;exitX=1;exitY=0.5;exitDx=0;exitDy=0;entryX=0;entryY=0.5;entryDx=0;entryDy=0;entryPerimeter=0;" edge="1" parent="1" source="1tP4wf2vDBA2qiism38b-5" target="1tP4wf2vDBA2qiism38b-10">
          <mxGeometry relative="1" as="geometry" />
        </mxCell>
        <mxCell id="1tP4wf2vDBA2qiism38b-13" value="SI" style="text;html=1;align=center;verticalAlign=middle;resizable=0;points=[];autosize=1;strokeColor=none;fillColor=none;" vertex="1" parent="1">
          <mxGeometry x="480" y="400" width="30" height="30" as="geometry" />
        </mxCell>
        <mxCell id="1tP4wf2vDBA2qiism38b-14" value="No" style="text;html=1;align=center;verticalAlign=middle;resizable=0;points=[];autosize=1;strokeColor=none;fillColor=none;" vertex="1" parent="1">
          <mxGeometry x="520" y="350" width="40" height="30" as="geometry" />
        </mxCell>
        <mxCell id="1tP4wf2vDBA2qiism38b-21" style="edgeStyle=orthogonalEdgeStyle;rounded=0;orthogonalLoop=1;jettySize=auto;html=1;exitX=0;exitY=0.5;exitDx=0;exitDy=0;" edge="1" parent="1" source="1tP4wf2vDBA2qiism38b-15" target="1tP4wf2vDBA2qiism38b-20">
          <mxGeometry relative="1" as="geometry" />
        </mxCell>
        <mxCell id="1tP4wf2vDBA2qiism38b-15" value="servirlo" style="rounded=1;whiteSpace=wrap;html=1;absoluteArcSize=1;arcSize=14;strokeWidth=2;" vertex="1" parent="1">
          <mxGeometry x="430" y="700" width="100" height="60" as="geometry" />
        </mxCell>
        <mxCell id="1tP4wf2vDBA2qiism38b-17" value="agregar sal" style="rounded=1;whiteSpace=wrap;html=1;absoluteArcSize=1;arcSize=14;strokeWidth=2;" vertex="1" parent="1">
          <mxGeometry x="420" y="470" width="100" height="60" as="geometry" />
        </mxCell>
        <mxCell id="1tP4wf2vDBA2qiism38b-19" style="edgeStyle=orthogonalEdgeStyle;rounded=0;orthogonalLoop=1;jettySize=auto;html=1;exitX=0.5;exitY=1;exitDx=0;exitDy=0;entryX=0.4;entryY=0;entryDx=0;entryDy=0;entryPerimeter=0;" edge="1" parent="1" source="1tP4wf2vDBA2qiism38b-17" target="1tP4wf2vDBA2qiism38b-15">
          <mxGeometry relative="1" as="geometry" />
        </mxCell>
        <mxCell id="1tP4wf2vDBA2qiism38b-20" value="" style="verticalLabelPosition=bottom;verticalAlign=top;html=1;shape=mxgraph.flowchart.on-page_reference;fillColor=#d5e8d4;strokeColor=#82b366;" vertex="1" parent="1">
          <mxGeometry x="340" y="710" width="40" height="40" as="geometry" />
        </mxCell>
        <mxCell id="1tP4wf2vDBA2qiism38b-25" style="edgeStyle=orthogonalEdgeStyle;rounded=0;orthogonalLoop=1;jettySize=auto;html=1;exitX=0.5;exitY=1;exitDx=0;exitDy=0;exitPerimeter=0;" edge="1" parent="1" source="1tP4wf2vDBA2qiism38b-22" target="1tP4wf2vDBA2qiism38b-24">
          <mxGeometry relative="1" as="geometry" />
        </mxCell>
        <mxCell id="1tP4wf2vDBA2qiism38b-22" value="" style="verticalLabelPosition=bottom;verticalAlign=top;html=1;shape=mxgraph.flowchart.on-page_reference;fillColor=#d5e8d4;strokeColor=#82b366;" vertex="1" parent="1">
          <mxGeometry x="70" y="150" width="40" height="40" as="geometry" />
        </mxCell>
        <mxCell id="1tP4wf2vDBA2qiism38b-30" style="edgeStyle=orthogonalEdgeStyle;rounded=0;orthogonalLoop=1;jettySize=auto;html=1;exitX=0.5;exitY=1;exitDx=0;exitDy=0;exitPerimeter=0;" edge="1" parent="1" source="1tP4wf2vDBA2qiism38b-24" target="1tP4wf2vDBA2qiism38b-29">
          <mxGeometry relative="1" as="geometry" />
        </mxCell>
        <mxCell id="1tP4wf2vDBA2qiism38b-24" value="Quieres Repetir" style="strokeWidth=2;html=1;shape=mxgraph.flowchart.decision;whiteSpace=wrap;" vertex="1" parent="1">
          <mxGeometry x="40" y="250" width="100" height="100" as="geometry" />
        </mxCell>
        <mxCell id="1tP4wf2vDBA2qiism38b-26" style="edgeStyle=orthogonalEdgeStyle;rounded=0;orthogonalLoop=1;jettySize=auto;html=1;exitX=1;exitY=0.5;exitDx=0;exitDy=0;exitPerimeter=0;entryX=0;entryY=0.5;entryDx=0;entryDy=0;entryPerimeter=0;" edge="1" parent="1" source="1tP4wf2vDBA2qiism38b-24" target="1tP4wf2vDBA2qiism38b-1">
          <mxGeometry relative="1" as="geometry">
            <mxPoint x="150" y="290" as="sourcePoint" />
            <mxPoint x="300" y="160" as="targetPoint" />
            <Array as="points">
              <mxPoint x="190" y="300" />
              <mxPoint x="190" y="100" />
            </Array>
          </mxGeometry>
        </mxCell>
        <mxCell id="1tP4wf2vDBA2qiism38b-27" value="Si" style="text;html=1;align=center;verticalAlign=middle;resizable=0;points=[];autosize=1;strokeColor=none;fillColor=none;" vertex="1" parent="1">
          <mxGeometry x="140" y="250" width="30" height="30" as="geometry" />
        </mxCell>
        <mxCell id="1tP4wf2vDBA2qiism38b-28" value="No" style="text;html=1;align=center;verticalAlign=middle;resizable=0;points=[];autosize=1;strokeColor=none;fillColor=none;" vertex="1" parent="1">
          <mxGeometry x="90" y="340" width="40" height="30" as="geometry" />
        </mxCell>
        <mxCell id="1tP4wf2vDBA2qiism38b-29" value="Fin del prog." style="strokeWidth=2;html=1;shape=mxgraph.flowchart.terminator;whiteSpace=wrap;" vertex="1" parent="1">
          <mxGeometry x="40" y="410" width="100" height="60" as="geometry" />
        </mxCell>
      </root>
    </mxGraphModel>
  </diagram>
</mxfile>
